Coordinates
version=1
nRows=17
nColumns=40
inDegrees=yes

Units are S.I. units (second, meters, Newtons, ...)
If the header above contains a line with 'inDegrees', this indicates whether rotational values are in degrees (yes) or radians (no).

endheader
time	pelvis_tilt	pelvis_list	pelvis_rotation	pelvis_tx	pelvis_ty	pelvis_tz	hip_flexion_r	hip_adduction_r	hip_rotation_r	knee_angle_r	knee_angle_r_beta	ankle_angle_r	subtalar_angle_r	mtp_angle_r	hip_flexion_l	hip_adduction_l	hip_rotation_l	knee_angle_l	knee_angle_l_beta	ankle_angle_l	subtalar_angle_l	mtp_angle_l	lumbar_extension	lumbar_bending	lumbar_rotation	arm_flex_r	arm_add_r	arm_rot_r	elbow_flex_r	pro_sup_r	wrist_flex_r	wrist_dev_r	arm_flex_l	arm_add_l	arm_rot_l	elbow_flex_l	pro_sup_l	wrist_flex_l	wrist_dev_l
      4.64000000	    -44.64935228	     -4.17932939	      6.59306301	      0.12043552	      0.43394876	     -1.17007839	    134.18140630	    -48.41108801	     21.64857959	    109.13285292	      1.90472761	     21.63944983	      0.40111563	      0.00000000	    135.72283006	    -34.63273954	     14.31416182	    102.51723802	      1.78926334	     15.52612985	     12.52374109	      0.00000000	      0.00000000	      0.00000000	      0.00000000	     44.99886232	    -15.00003456	     44.99886232	     75.00017585	     45.00000026	      0.00000000	      0.00000000	     44.99886232	    -15.00003456	     44.99886232	     75.00017585	     45.00000026	      0.00000000	      0.00000000
      4.64500000	    -44.69970070	     -4.20131064	      6.64321464	      0.11996996	      0.43423382	     -1.17025322	    134.21988110	    -48.39894447	     21.65116381	    109.06210418	      1.90349281	     21.53690100	      0.26924182	      0.00000000	    135.71580055	    -34.54801083	     14.20887745	    102.44106429	      1.78793386	     15.43710787	     12.45077614	      0.00000000	      0.00000000	      0.00000000	      0.00000000	     44.99888940	    -15.00003318	     44.99888940	     75.00017585	     45.00000026	      0.00000000	      0.00000000	     44.99888940	    -15.00003318	     44.99888940	     75.00017585	     45.00000026	      0.00000000	      0.00000000
      4.65000000	    -44.75156186	     -4.26343578	      6.71054879	      0.11950208	      0.43459505	     -1.17047875	    134.21369173	    -48.43491355	     21.60286692	    108.98480738	      1.90214372	     21.41996626	      0.14140923	      0.00000000	    135.72419090	    -34.41414485	     14.12338848	    102.35132057	      1.78636754	     15.31435432	     12.34966526	      0.00000000	      0.00000000	      0.00000000	      0.00000000	     44.99891374	    -15.00003195	     44.99891374	     75.00017585	     45.00000026	      0.00000000	      0.00000000	     44.99891374	    -15.00003195	     44.99891374	     75.00017585	     45.00000026	      0.00000000	      0.00000000
      4.65500000	    -44.78396411	     -4.31608810	      6.74049991	      0.11901254	      0.43501890	     -1.17069879	    134.14775203	    -48.42362537	     21.52221714	    108.88163874	      1.90034309	     21.31958066	      0.00176617	      0.00000000	    135.73609659	    -34.32840342	     14.05594177	    102.28000778	      1.78512289	     15.21791848	     12.28737480	      0.00000000	      0.00000000	      0.00000000	      0.00000000	     44.99893439	    -15.00003093	     44.99893439	     75.00017585	     45.00000026	      0.00000000	      0.00000000	     44.99893439	    -15.00003093	     44.99893439	     75.00017585	     45.00000026	      0.00000000	      0.00000000
      4.66000000	    -44.88133692	     -4.31626771	      6.82679301	      0.11843815	      0.43546744	     -1.17083319	    134.25512312	    -48.40513040	     21.56070257	    108.79570665	      1.89884329	     21.21267622	     -0.16339800	      0.00000000	    135.69179869	    -34.23548783	     13.85549980	    102.13772692	      1.78263963	     15.08018049	     12.18428036	      0.00000000	      0.00000000	      0.00000000	      0.00000000	     44.99895480	    -15.00002992	     44.99895480	     75.00017585	     45.00000026	      0.00000000	      0.00000000	     44.99895480	    -15.00002992	     44.99895480	     75.00017585	     45.00000026	      0.00000000	      0.00000000
      4.66500000	    -44.95315316	     -4.36548864	      6.89233335	      0.11786059	      0.43600691	     -1.17104226	    134.24931203	    -48.41552676	     21.49858708	    108.68354864	      1.89688577	     21.09585096	     -0.32621115	      0.00000000	    135.68016027	    -34.11779924	     13.72397054	    102.01257477	      1.78045531	     14.94964032	     12.08605483	      0.00000000	      0.00000000	      0.00000000	      0.00000000	     44.99897444	    -15.00002897	     44.99897444	     75.00017585	     45.00000026	      0.00000000	      0.00000000	     44.99897444	    -15.00002897	     44.99897444	     75.00017585	     45.00000026	      0.00000000	      0.00000000
      4.67000000	    -45.04022520	     -4.38490613	      6.94875139	      0.11726600	      0.43655833	     -1.17119943	    134.27963567	    -48.38728468	     21.46590519	    108.57040063	      1.89491096	     20.95920600	     -0.48388909	      0.00000000	    135.66161857	    -34.03487391	     13.56610764	    101.87847342	      1.77811480	     14.80458508	     11.99649893	      0.00000000	      0.00000000	      0.00000000	      0.00000000	     44.99899317	    -15.00002807	     44.99899317	     75.00017585	     45.00000026	      0.00000000	      0.00000000	     44.99899317	    -15.00002807	     44.99899317	     75.00017585	     45.00000026	      0.00000000	      0.00000000
      4.67500000	    -45.12789322	     -4.41801356	      7.01936708	      0.11662949	      0.43719052	     -1.17140978	    134.29263298	    -48.37878768	     21.41913028	    108.44070188	      1.89264729	     20.82401881	     -0.65964067	      0.00000000	    135.63222270	    -33.92366673	     13.39785089	    101.73079142	      1.77553726	     14.65514500	     11.89945567	      0.00000000	      0.00000000	      0.00000000	      0.00000000	     44.99901191	    -15.00002718	     44.99901191	     75.00017585	     45.00000026	      0.00000000	      0.00000000	     44.99901191	    -15.00002718	     44.99901191	     75.00017585	     45.00000026	      0.00000000	      0.00000000
      4.68000000	    -45.22784549	     -4.44674308	      7.08325349	      0.11597739	      0.43788390	     -1.17159407	    134.29999166	    -48.36029148	     21.35399149	    108.29911632	      1.89017616	     20.70911264	     -0.83670509	      0.00000000	    135.60337139	    -33.82518037	     13.21831316	    101.57266432	      1.77277742	     14.51284107	     11.80271096	      0.00000000	      0.00000000	      0.00000000	      0.00000000	     44.99903007	    -15.00002633	     44.99903007	     75.00017585	     45.00000026	      0.00000000	      0.00000000	     44.99903007	    -15.00002633	     44.99903007	     75.00017585	     45.00000026	      0.00000000	      0.00000000
      4.68500000	    -45.32326208	     -4.49817299	      7.14880464	      0.11526482	      0.43863333	     -1.17182673	    134.28525559	    -48.35734981	     21.26209345	    108.14628908	      1.88750882	     20.53473113	     -1.02199661	      0.00000000	    135.57874458	    -33.69380391	     13.06013131	    101.40342877	      1.76982370	     14.34661198	     11.69776209	      0.00000000	      0.00000000	      0.00000000	      0.00000000	     44.99904756	    -15.00002551	     44.99904756	     75.00017585	     45.00000026	      0.00000000	      0.00000000	     44.99904756	    -15.00002551	     44.99904756	     75.00017585	     45.00000026	      0.00000000	      0.00000000
      4.69000000	    -45.42677355	     -4.52925277	      7.22246372	      0.11454199	      0.43946161	     -1.17206254	    134.27844457	    -48.33773295	     21.18800129	    107.97910720	      1.88459094	     20.38416866	     -1.23684133	      0.00000000	    135.53168785	    -33.57412115	     12.85971645	    101.22105608	      1.76664070	     14.15232912	     11.56480656	      0.00000000	      0.00000000	      0.00000000	      0.00000000	     44.99906439	    -15.00002474	     44.99906439	     75.00017585	     45.00000026	      0.00000000	      0.00000000	     44.99906439	    -15.00002474	     44.99906439	     75.00017585	     45.00000026	      0.00000000	      0.00000000
      4.69500000	    -45.53713042	     -4.58632796	      7.29252906	      0.11379156	      0.44033584	     -1.17233095	    134.25042262	    -48.34434830	     21.06530842	    107.80116154	      1.88148521	     20.21988820	     -1.45173949	      0.00000000	    135.50020409	    -33.42999560	     12.67871463	    101.03367468	      1.76337028	     13.98510210	     11.41511234	      0.00000000	      0.00000000	      0.00000000	      0.00000000	     44.99908039	    -15.00002401	     44.99908039	     75.00017585	     45.00000026	      0.00000000	      0.00000000	     44.99908039	    -15.00002401	     44.99908039	     75.00017585	     45.00000026	      0.00000000	      0.00000000
      4.70000000	    -45.64613951	     -4.61858792	      7.36977307	      0.11301647	      0.44127363	     -1.17259257	    134.24611930	    -48.33121437	     20.98774393	    107.61550522	      1.87824489	     20.04151147	     -1.65629061	      0.00000000	    135.43595566	    -33.29945211	     12.46447422	    100.83234828	      1.75985647	     13.80336356	     11.28201640	      0.00000000	      0.00000000	      0.00000000	      0.00000000	     44.99909575	    -15.00002332	     44.99909575	     75.00017585	     45.00000026	      0.00000000	      0.00000000	     44.99909575	    -15.00002332	     44.99909575	     75.00017585	     45.00000026	      0.00000000	      0.00000000
      4.70500000	    -45.76166155	     -4.62868270	      7.43839390	      0.11216475	      0.44221447	     -1.17280908	    134.25756678	    -48.27767339	     20.93193411	    107.42346707	      1.87489319	     19.83032961	     -1.84771194	      0.00000000	    135.36527878	    -33.18356177	     12.24358683	    100.63336517	      1.75638356	     13.62755753	     11.17769779	      0.00000000	      0.00000000	      0.00000000	      0.00000000	     44.99911099	    -15.00002264	     44.99911099	     75.00017585	     45.00000026	      0.00000000	      0.00000000	     44.99911099	    -15.00002264	     44.99911099	     75.00017585	     45.00000026	      0.00000000	      0.00000000
      4.71000000	    -45.88414189	     -4.69519280	      7.51492397	      0.11131249	      0.44329177	     -1.17312373	    134.19491480	    -48.28746592	     20.77321252	    107.20510987	      1.87108214	     19.67492251	     -2.08219223	      0.00000000	    135.31537689	    -33.01195560	     12.04695493	    100.40235611	      1.75235169	     13.42799851	     11.02092054	      0.00000000	      0.00000000	      0.00000000	      0.00000000	     44.99912466	    -15.00002203	     44.99912466	     75.00017585	     45.00000026	      0.00000000	      0.00000000	     44.99912466	    -15.00002203	     44.99912466	     75.00017585	     45.00000026	      0.00000000	      0.00000000
      4.71500000	    -46.01788663	     -4.74714588	      7.58753859	      0.11040891	      0.44441124	     -1.17342050	    134.15231464	    -48.27233418	     20.63105296	    106.97577692	      1.86707953	     19.47778323	     -2.31622580	      0.00000000	    135.25870740	    -32.84818469	     11.82971439	    100.16281068	      1.74817083	     13.22453674	     10.82373469	      0.00000000	      0.00000000	      0.00000000	      0.00000000	     44.99913802	    -15.00002145	     44.99913802	     75.00017585	     45.00000026	      0.00000000	      0.00000000	     44.99913802	    -15.00002145	     44.99913802	     75.00017585	     45.00000026	      0.00000000	      0.00000000
      4.72000000	    -46.14306076	     -4.80058809	      7.66281144	      0.10950062	      0.44557042	     -1.17372280	    134.09248972	    -48.26334123	     20.47986454	    106.74479311	      1.86304810	     19.30796804	     -2.55640034	      0.00000000	    135.19223048	    -32.68419394	     11.61952762	     99.92237222	      1.74397439	     13.01595187	     10.67804459	      0.00000000	      0.00000000	      0.00000000	      0.00000000	     44.99915112	    -15.00002088	     44.99915112	     75.00017585	     45.00000026	      0.00000000	      0.00000000	     44.99915112	    -15.00002088	     44.99915112	     75.00017585	     45.00000026	      0.00000000	      0.00000000
